,
.   http://www.scenetime.com/signup.php  ---&gt;  Hottest scene tracker on the net !!!
 
Scenetime lucky draw is started , join now and be the winner . offer is limited 

    Join Now   http://www.scenetime.com/signup.php

    seed back for speed


 



...................................NFO:.................................................








































          
          
              
              
                    
                    
                    
                    

Drive.2011.R5.XviD.AC3-SiC

Poster:
[IMG]http://img714.imageshack.us/img714/2333/mv5botm1odq0nzc4nf5bml5.jpg[/IMG]

IMDB Link: 
http://www.imdb.com/title/tt0780504/

Description:
A Hollywood stunt performer who moonlights as a wheelman discovers that a contract has been put on him after a heist gone wrong.  

MediaInfo:
General
Complete name                    : Drive.2011.R5.XviD.AC3-SiC.avi
Format                           : AVI
Format/Info                      : Audio Video Interleave
File size                        : 1.37 GiB
Duration                         : 1h 36mn
Overall bit rate                 : 2 023 Kbps

Video
ID                               : 0
Format                           : MPEG-4 Visual
Format profile                   : Advanced Simple@L5
Format settings, BVOP            : Yes
Format settings, QPel            : No
Format settings, GMC             : No warppoints
Format settings, Matrix          : Default (MPEG)
Muxing mode                      : Packed bitstream
Codec ID                         : XVID
Codec ID/Hint                    : XviD
Duration                         : 1h 36mn
Bit rate                         : 1 632 Kbps
Width                            : 720 pixels
Height                           : 304 pixels
Display aspect ratio             : 2.35:1
Frame rate                       : 25.000 fps
Color space                      : YUV
Chroma subsampling               : 4:2:0
Bit depth                        : 8 bits
Scan type                        : Progressive
Bits/(Pixel*Frame)               : 0.298
Stream size                      : 1.10 GiB (81%)
Writing library                  : XviD 64

Audio
ID                               : 1
Format                           : AC-3
Format/Info                      : Audio Coding 3
Mode extension                   : CM (complete main)
Codec ID                         : 2000
Duration                         : 1h 36mn
Bit rate mode                    : Constant
Bit rate                         : 384 Kbps
Channel(s)                       : 6 channels
Channel positions                : Front: L C R, Side: L R, LFE
Sampling rate                    : 48.0 KHz
Bit depth                        : 16 bits
Stream size                      : 266 MiB (19%)
Alignment                        : Aligned on interleaves
Interleave, duration             : 64 ms (1.60 video frames)
Interleave, preload duration     : 192 ms
Title                            : Drive T81 3_2ch 448Kbps DELAY 0ms_new


Screenshots:
[img]http://img85.imageshack.us/img85/665/snap1o.png[/img]
[img]http://img809.imageshack.us/img809/9672/snap2o.png[/img]
[img]http://img189.imageshack.us/img189/6826/snap3yo.png[/img]
[img]http://img696.imageshack.us/img696/5016/snap4k.png[/img]
[img]http://img560.imageshack.us/img560/9102/snap5h.png[/img]

Note : did my thing, turned out nice

Source: ELEKTRI4KA thnx

Enjoy!

Respects to T00NG0D, ELEKTRI4KA, PA, YeFsTe, Box, MrRep and everyone in the struggle...